<svg width="20" height="18" viewBox="0 0 20 18" fill="none" xmlns="http://www.w3.org/2000/svg">
<path d="M5.8074 5.05005C5.86545 4.99944 5.93442 4.95928 6.01035 4.93188C6.08629 4.90448 6.16769 4.89038 6.2499 4.89038C6.33211 4.89038 6.41351 4.90448 6.48944 4.93188C6.56537 4.95928 6.63434 4.99944 6.6924 5.05005L9.9999 7.92722L13.3074 5.05005C13.3655 4.99952 13.4345 4.95943 13.5104 4.93209C13.5863 4.90474 13.6677 4.89067 13.7499 4.89067C13.8321 4.89067 13.9135 4.90474 13.9894 4.93209C14.0653 4.95943 14.1343 4.99952 14.1924 5.05005C14.2505 5.10058 14.2966 5.16057 14.3281 5.22659C14.3595 5.29261 14.3757 5.36337 14.3757 5.43483C14.3757 5.50629 14.3595 5.57705 14.3281 5.64307C14.2966 5.70909 14.2505 5.76908 14.1924 5.81961L10.8836 8.6957L14.1924 11.5718C14.2505 11.6223 14.2966 11.6823 14.3281 11.7483C14.3595 11.8143 14.3757 11.8851 14.3757 11.9566C14.3757 12.028 14.3595 12.0988 14.3281 12.1648C14.2966 12.2308 14.2505 12.2908 14.1924 12.3414C14.1343 12.3919 14.0653 12.432 13.9894 12.4593C13.9135 12.4867 13.8321 12.5007 13.7499 12.5007C13.6677 12.5007 13.5863 12.4867 13.5104 12.4593C13.4345 12.432 13.3655 12.3919 13.3074 12.3414L9.9999 9.46418L6.6924 12.3414C6.63429 12.3919 6.5653 12.432 6.48938 12.4593C6.41345 12.4867 6.33208 12.5007 6.2499 12.5007C6.16772 12.5007 6.08634 12.4867 6.01042 12.4593C5.93449 12.432 5.86551 12.3919 5.8074 12.3414C5.74929 12.2908 5.70319 12.2308 5.67174 12.1648C5.64029 12.0988 5.62411 12.028 5.62411 11.9566C5.62411 11.8851 5.64029 11.8143 5.67174 11.7483C5.70319 11.6823 5.74929 11.6223 5.8074 11.5718L9.11615 8.6957L5.8074 5.81961C5.74919 5.76913 5.70301 5.70916 5.67151 5.64313C5.64 5.5771 5.62378 5.50632 5.62378 5.43483C5.62378 5.36334 5.64 5.29256 5.67151 5.22653C5.70301 5.16051 5.74919 5.10053 5.8074 5.05005Z" fill="white"/>
</svg>
