<svg width="30" height="30" viewBox="0 0 30 30" fill="none" xmlns="http://www.w3.org/2000/svg">
<path d="M16.2847 2.50105C17.1969 2.49755 18.1091 2.50672 19.021 2.52855L19.2635 2.5373C19.5435 2.5473 19.8197 2.5598 20.1535 2.5748C21.4835 2.6373 22.391 2.8473 23.1872 3.15605C24.0122 3.47355 24.7072 3.90355 25.4022 4.59855C26.0377 5.22306 26.5295 5.97848 26.8435 6.8123C27.1522 7.60855 27.3622 8.5173 27.4247 9.8473C27.4397 10.1798 27.4522 10.4573 27.4622 10.7373L27.4697 10.9798C27.492 11.8913 27.5015 12.803 27.4985 13.7148L27.4997 14.6473V16.2848C27.5028 17.197 27.4932 18.1091 27.471 19.021L27.4635 19.2635C27.4535 19.5436 27.441 19.8198 27.426 20.1535C27.3635 21.4835 27.151 22.391 26.8435 23.1873C26.5306 24.022 26.0386 24.778 25.4022 25.4023C24.7772 26.0377 24.0214 26.5295 23.1872 26.8436C22.391 27.1523 21.4835 27.3623 20.1535 27.4248C19.8197 27.4398 19.5435 27.4523 19.2635 27.4623L19.021 27.4698C18.1091 27.492 17.1969 27.5016 16.2847 27.4986L15.3522 27.4998H13.716C12.8038 27.5029 11.8917 27.4933 10.9797 27.4711L10.7372 27.4636C10.4405 27.4528 10.1438 27.4403 9.84724 27.4261C8.51724 27.3636 7.60974 27.1511 6.81224 26.8436C5.9781 26.5302 5.22254 26.0383 4.59849 25.4023C3.9623 24.7777 3.47002 24.0217 3.15599 23.1873C2.84724 22.391 2.63724 21.4835 2.57474 20.1535C2.56082 19.8569 2.54832 19.5603 2.53724 19.2635L2.53099 19.021C2.50795 18.1092 2.49753 17.197 2.49974 16.2848V13.7148C2.49626 12.8031 2.50542 11.8913 2.52724 10.9798L2.53599 10.7373C2.54599 10.4573 2.55849 10.1798 2.57349 9.8473C2.63599 8.51605 2.84599 7.6098 3.15474 6.8123C3.46896 5.97807 3.9622 5.22286 4.59974 4.5998C5.22336 3.96324 5.97845 3.47052 6.81224 3.15605C7.60974 2.8473 8.51599 2.6373 9.84724 2.5748L10.7372 2.5373L10.9797 2.53105C11.8912 2.50802 12.803 2.4976 13.7147 2.4998L16.2847 2.50105ZM14.9997 8.75105C14.1716 8.73934 13.3494 8.89233 12.581 9.20113C11.8125 9.50994 11.1131 9.9684 10.5233 10.5499C9.93355 11.1313 9.46525 11.8242 9.1456 12.5883C8.82596 13.3523 8.66136 14.1722 8.66136 15.0004C8.66136 15.8286 8.82596 16.6486 9.1456 17.4126C9.46525 18.1766 9.93355 18.8695 10.5233 19.451C11.1131 20.0325 11.8125 20.4909 12.581 20.7997C13.3494 21.1085 14.1716 21.2615 14.9997 21.2498C16.6573 21.2498 18.2471 20.5913 19.4192 19.4192C20.5913 18.2471 21.2497 16.6574 21.2497 14.9998C21.2497 13.3422 20.5913 11.7525 19.4192 10.5804C18.2471 9.40828 16.6573 8.75105 14.9997 8.75105ZM14.9997 11.251C15.4979 11.2419 15.9928 11.332 16.4557 11.5163C16.9186 11.7006 17.3402 11.9752 17.6957 12.3242C18.0513 12.6732 18.3337 13.0896 18.5265 13.549C18.7194 14.0084 18.8187 14.5016 18.8188 14.9998C18.8189 15.498 18.7197 15.9912 18.527 16.4507C18.3344 16.9101 18.052 17.3266 17.6966 17.6757C17.3412 18.0248 16.9197 18.2996 16.4569 18.4841C15.9941 18.6685 15.4991 18.7588 15.001 18.7498C14.0064 18.7498 13.0526 18.3547 12.3493 17.6515C11.6461 16.9482 11.251 15.9944 11.251 14.9998C11.251 14.0052 11.6461 13.0514 12.3493 12.3481C13.0526 11.6449 14.0064 11.2498 15.001 11.2498L14.9997 11.251ZM21.5622 6.87605C21.159 6.89219 20.7776 7.06374 20.498 7.35476C20.2184 7.64579 20.0622 8.03372 20.0622 8.4373C20.0622 8.84088 20.2184 9.22881 20.498 9.51984C20.7776 9.81086 21.159 9.98241 21.5622 9.99855C21.9766 9.99855 22.3741 9.83393 22.6671 9.5409C22.9601 9.24788 23.1247 8.85045 23.1247 8.43605C23.1247 8.02165 22.9601 7.62422 22.6671 7.3312C22.3741 7.03817 21.9766 6.87355 21.5622 6.87355V6.87605Z" fill="white"/>
</svg>
