<svg width="70" height="70" viewBox="0 0 70 70" fill="none" xmlns="http://www.w3.org/2000/svg">
<rect width="70" height="70" rx="35" fill="#A1B6BD"/>
<path fill-rule="evenodd" clip-rule="evenodd" d="M34.5 21C35.9963 21 37.531 21.0385 39.0185 21.1015L40.7755 21.1855L42.4573 21.2853L44.0323 21.392L45.4707 21.504C47.0321 21.6228 48.5014 22.2888 49.6199 23.3846C50.7384 24.4803 51.4344 25.9357 51.5853 27.4942L51.6553 28.238L51.7865 29.8305C51.909 31.4807 52 33.2797 52 35C52 36.7203 51.909 38.5193 51.7865 40.1695L51.6553 41.762L51.5853 42.5057C51.4344 44.0646 50.7381 45.5201 49.6193 46.616C48.5004 47.7118 47.0306 48.3776 45.469 48.496L44.034 48.6062L42.459 48.7148L40.7755 48.8145L39.0185 48.8985C37.5132 48.9637 36.0067 48.9975 34.5 49C32.9933 48.9975 31.4868 48.9637 29.9815 48.8985L28.2245 48.8145L26.5428 48.7148L24.9678 48.6062L23.5293 48.496C21.9679 48.3772 20.4986 47.7112 19.3801 46.6154C18.2616 45.5197 17.5656 44.0643 17.4147 42.5057L17.3448 41.762L17.2135 40.1695C17.0802 38.4495 17.009 36.7252 17 35C17 33.2797 17.091 31.4807 17.2135 29.8305L17.3448 28.238L17.4147 27.4942C17.5655 25.936 18.2612 24.4808 19.3794 23.3851C20.4976 22.2893 21.9665 21.6232 23.5275 21.504L24.9643 21.392L26.5393 21.2853L28.2227 21.1855L29.9797 21.1015C31.4856 21.0363 32.9927 21.0024 34.5 21ZM31 30.7562V39.2437C31 40.0522 31.875 40.5562 32.575 40.1537L39.925 35.91C40.0849 35.8179 40.2178 35.6853 40.3102 35.5256C40.4025 35.3658 40.4512 35.1845 40.4512 35C40.4512 34.8155 40.4025 34.6342 40.3102 34.4744C40.2178 34.3147 40.0849 34.1821 39.925 34.09L32.575 29.848C32.4153 29.7558 32.2342 29.7073 32.0498 29.7073C31.8655 29.7074 31.6843 29.7559 31.5247 29.8482C31.3651 29.9404 31.2325 30.0731 31.1404 30.2328C31.0483 30.3925 30.9999 30.5736 31 30.758V30.7562Z" fill="white"/>
</svg>
