<svg width="70" height="70" viewBox="0 0 70 70" fill="none" xmlns="http://www.w3.org/2000/svg">
<rect width="70" height="70" rx="35" fill="#A1B6BD"/>
<path d="M52 52H31.2222C24.9889 52 21.8722 52 19.9361 50.0639C18 48.1278 18 45.0111 18 38.7778V18M25.5556 19.8889H27.4444H25.5556ZM25.5556 25.5556H33.1111H25.5556Z" fill="#A1B6BD"/>
<path d="M52 52H31.2222C24.9889 52 21.8722 52 19.9361 50.0639C18 48.1278 18 45.0111 18 38.7778V18M25.5556 19.8889H27.4444M25.5556 25.5556H33.1111" stroke="white" stroke-width="1.5" stroke-linecap="round" stroke-linejoin="round"/>
<path d="M21.7778 50.1111C23.7989 46.4335 26.5435 36.9248 31.8003 36.9248C35.4345 36.9248 36.3752 41.5582 39.9376 41.5582C46.0633 41.5582 45.1755 31.2222 52.0001 31.2222" fill="#A1B6BD"/>
<path d="M21.7778 50.1111C23.7989 46.4335 26.5435 36.9248 31.8003 36.9248C35.4345 36.9248 36.3752 41.5582 39.9376 41.5582C46.0633 41.5582 45.1755 31.2222 52.0001 31.2222" stroke="white" stroke-width="1.5" stroke-linecap="round" stroke-linejoin="round"/>
</svg>
