<svg width="70" height="70" viewBox="0 0 70 70" fill="none" xmlns="http://www.w3.org/2000/svg">
<rect width="70" height="70" rx="35" fill="#A1B6BD"/>
<path d="M45.35 31.6687L46.9 25.5188C47.1583 24.75 48.1917 21.1625 46.125 18.0875C44.575 15.7813 41.475 14.5 37.0833 14.5H31.9167C27.525 14.5 24.425 15.7813 22.875 18.0875C20.8083 21.1625 21.8417 24.4938 22.1 25.5188L23.65 31.6687C20.8083 34.4875 19 38.3312 19 42.6875C19 48.0687 21.8417 52.6813 25.975 55.5H43.025C47.1583 52.6813 50 48.0687 50 42.6875C50 38.3312 48.1917 34.4875 45.35 31.6687ZM28.3 28.5938L27.0083 24.2375V23.9812C27.0083 23.9812 26.4917 22.1875 27.2667 21.1625C27.7833 20.1375 29.3333 19.625 31.9167 19.625H37.0833C39.4083 19.625 41.2167 20.1375 41.9917 20.9062C42.7667 21.9313 42.25 23.725 42.25 23.725L40.9583 28.5938C38.8917 27.825 36.825 27.3125 34.5 27.3125C32.175 27.3125 30.1083 27.825 28.3 28.5938Z" fill="white"/>
</svg>
