<svg width="70" height="70" viewBox="0 0 70 70" fill="none" xmlns="http://www.w3.org/2000/svg">
<rect width="70" height="70" rx="35" fill="#A1B6BD"/>
<path fill-rule="evenodd" clip-rule="evenodd" d="M39.7626 18.3466C39.9847 18.5688 40.1095 18.87 40.1095 19.1841C40.1095 19.4981 39.9847 19.7993 39.7626 20.0215C39.1048 20.681 38.5144 21.3762 37.9915 22.1073L39.9002 24.0146C40.1097 24.2392 40.2237 24.5364 40.2183 24.8434C40.2129 25.1504 40.0884 25.4433 39.8711 25.6605C39.6538 25.8776 39.3607 26.002 39.0534 26.0074C38.7462 26.0128 38.4488 25.8988 38.224 25.6895L36.7249 24.1915C36.3918 24.8468 36.1098 25.5136 35.8789 26.192L43.5942 33.8999C43.6494 33.9581 43.7002 34.0205 43.746 34.0864C44.3988 33.8639 45.0364 33.5989 45.6546 33.2932L40.898 28.5385C40.7815 28.43 40.688 28.2992 40.6232 28.1538C40.5584 28.0084 40.5235 27.8515 40.5207 27.6924C40.5179 27.5333 40.5472 27.3752 40.6068 27.2276C40.6665 27.0801 40.7553 26.946 40.8679 26.8335C40.9805 26.7209 41.1147 26.6322 41.2623 26.5726C41.41 26.513 41.5682 26.4837 41.7274 26.4865C41.8867 26.4894 42.0437 26.5242 42.1892 26.589C42.3347 26.6537 42.4656 26.7471 42.5742 26.8636L47.7546 32.0385C48.5242 31.4992 49.2548 30.885 49.9463 30.1961C50.0549 30.0796 50.1858 29.9863 50.3313 29.9215C50.4768 29.8567 50.6338 29.8219 50.7931 29.8191C50.9523 29.8163 51.1105 29.8455 51.2582 29.9051C51.4059 29.9647 51.54 30.0535 51.6526 30.166C51.7653 30.2785 51.854 30.4126 51.9137 30.5601C51.9733 30.7077 52.0026 30.8658 51.9998 31.0249C51.997 31.184 51.9622 31.341 51.8973 31.4863C51.8325 31.6317 51.7391 31.7625 51.6225 31.871C47.4763 36.0157 41.7171 37.9609 36.5114 36.948C37.6974 41.965 35.8789 47.6045 31.856 51.6228C31.7474 51.7392 31.6165 51.8326 31.471 51.8974C31.3255 51.9622 31.1685 51.997 31.0092 51.9998C30.85 52.0026 30.6918 51.9734 30.5441 51.9137C30.3965 51.8541 30.2623 51.7654 30.1497 51.6529C30.0371 51.5404 29.9483 51.4063 29.8886 51.2587C29.829 51.1112 29.7997 50.9531 29.8025 50.794C29.8053 50.6349 29.8402 50.4779 29.905 50.3326C29.9698 50.1872 30.0633 50.0564 30.1798 49.9479C30.8557 49.27 31.4686 48.5322 32.011 47.7436L29.8699 45.6056C29.7566 45.4963 29.6664 45.3654 29.6043 45.2208C29.5422 45.0762 29.5095 44.9207 29.5082 44.7633C29.5069 44.606 29.537 44.4499 29.5967 44.3043C29.6564 44.1587 29.7446 44.0264 29.856 43.9152C29.9674 43.804 30.0998 43.716 30.2456 43.6565C30.3914 43.597 30.5476 43.5671 30.7051 43.5685C30.8625 43.57 31.0181 43.6027 31.1628 43.6649C31.3075 43.7271 31.4383 43.8174 31.5476 43.9307L33.2286 45.6088C33.5227 44.9704 33.7668 44.3236 33.9607 43.6684L33.8848 43.5988L26.2739 35.9968C25.5782 36.2022 24.8919 36.465 24.2151 36.7853L28.6918 41.2571C28.9145 41.4792 29.0398 41.7806 29.04 42.095C29.0403 42.4094 28.9156 42.7111 28.6934 42.9336C28.4711 43.1561 28.1694 43.2813 27.8548 43.2816C27.5402 43.2819 27.2383 43.1573 27.0156 42.9352L22.0945 38.0162C21.3566 38.5303 20.6566 39.116 19.9945 39.7733C19.7697 39.9827 19.4723 40.0966 19.1651 40.0912C18.8578 40.0858 18.5647 39.9614 18.3474 39.7443C18.1301 39.5271 18.0056 39.2342 18.0002 38.9272C17.9948 38.6202 18.1088 38.323 18.3183 38.0984C22.3396 34.0785 27.9833 32.2629 33.004 33.4464C31.992 28.2446 33.937 22.4897 38.0848 18.3466C38.3072 18.1247 38.6086 18 38.9229 18C39.2372 18 39.5402 18.1247 39.7626 18.3466ZM41.0577 34.72L35.2385 28.9019C34.987 30.7507 35.123 32.59 35.667 34.2934C37.3717 34.837 39.2123 34.9728 41.0625 34.7216M33.9149 36.4945C34.3877 37.8645 34.568 39.3388 34.4731 40.8352L29.1219 35.488C30.6194 35.3932 32.0948 35.5733 33.4658 36.0458L33.801 36.1595L33.9149 36.4945Z" fill="white"/>
</svg>
