<svg width="70" height="70" viewBox="0 0 70 70" fill="none" xmlns="http://www.w3.org/2000/svg">
<rect width="70" height="70" rx="35" fill="#A1B6BD"/>
<path d="M35 23.7067C35.0002 22.9573 34.8535 22.2152 34.568 21.5227C34.2826 20.8303 33.864 20.2012 33.3364 19.6712C32.8087 19.1413 32.1823 18.721 31.4928 18.4343C30.8034 18.1477 30.0644 18.0002 29.3182 18.0005H23.7549C23.0027 17.9908 22.256 18.1312 21.5582 18.4135C20.8604 18.6959 20.2255 19.1147 19.6901 19.6455C19.1547 20.1762 18.7296 20.8085 18.4395 21.5056C18.1494 22.2027 18 22.9507 18 23.7063C18 24.4618 18.1494 25.2098 18.4395 25.9069C18.7296 26.604 19.1547 27.2363 19.6901 27.7671C20.2255 28.2979 20.8604 28.7166 21.5582 28.999C22.256 29.2814 23.0027 29.4218 23.7549 29.412H24.8439V32.1669C24.8439 32.1669 35 30.79 35 23.7067ZM29.8279 38.778C29.8279 40.8652 28.1446 42.5557 26.0664 42.5557C23.9881 42.5557 22.3048 40.8652 22.3048 38.778C22.3048 36.6908 23.9881 35.0002 26.0664 35.0002C28.1446 35.0002 29.8279 36.6908 29.8279 38.778ZM26.0664 44.4445C23.3985 44.4445 18.0731 45.7951 18.0731 48.4744V52H34.0596V48.4744C34.0596 45.7941 28.7342 44.4445 26.0664 44.4445ZM43.9336 42.5557C46.0119 42.5557 47.6952 40.8652 47.6952 38.778C47.6952 36.6908 46.0119 35.0002 43.9336 35.0002C41.8554 35.0002 40.1721 36.6908 40.1721 38.778C40.1721 40.8652 41.8554 42.5557 43.9336 42.5557ZM43.9336 44.4445C41.2658 44.4445 35.9404 45.7951 35.9404 48.4744V52H51.9269V48.4744C51.9269 45.7941 46.6015 44.4445 43.9336 44.4445ZM42.5626 18.9449C41.8164 18.9447 41.0774 19.0921 40.3879 19.3788C39.6985 19.6654 39.072 20.0857 38.5444 20.6157C38.0167 21.1456 37.5982 21.7747 37.3128 22.4672C37.0273 23.1596 36.8805 23.9017 36.8808 24.6512C36.8808 31.7344 45.9084 33.1114 45.9084 33.1114V30.3565H46.2451C46.9973 30.3662 47.744 30.2258 48.4418 29.9434C49.1396 29.661 49.7746 29.2423 50.3099 28.7115C50.8453 28.1807 51.2704 27.5484 51.5605 26.8513C51.8506 26.1542 52 25.4062 52 24.6507C52 23.8952 51.8506 23.1471 51.5605 22.4501C51.2704 21.753 50.8453 21.1207 50.3099 20.5899C49.7746 20.0591 49.1396 19.6404 48.4418 19.358C47.744 19.0756 46.9973 18.9352 46.2451 18.9449H42.5626Z" fill="white"/>
</svg>
