<svg width="30" height="30" viewBox="0 0 30 30" fill="none" xmlns="http://www.w3.org/2000/svg">
<path fill-rule="evenodd" clip-rule="evenodd" d="M15 0C6.7155 0 0 6.7155 0 15C0 23.2845 6.7155 30 15 30C23.2845 30 30 23.2845 30 15C30 6.7155 23.2845 0 15 0ZM9.75 11.25C9.75 10.5606 9.88579 9.87787 10.1496 9.24091C10.4135 8.60395 10.8002 8.0252 11.2877 7.53769C11.7752 7.05018 12.354 6.66347 12.9909 6.39963C13.6279 6.1358 14.3106 6 15 6C15.6894 6 16.3721 6.1358 17.0091 6.39963C17.646 6.66347 18.2248 7.05018 18.7123 7.53769C19.1998 8.0252 19.5865 8.60395 19.8504 9.24091C20.1142 9.87787 20.25 10.5606 20.25 11.25C20.25 12.6424 19.6969 13.9777 18.7123 14.9623C17.7277 15.9469 16.3924 16.5 15 16.5C13.6076 16.5 12.2723 15.9469 11.2877 14.9623C10.3031 13.9777 9.75 12.6424 9.75 11.25ZM24.387 22.476C23.2638 23.888 21.8363 25.0282 20.2109 25.8116C18.5855 26.5949 16.8043 27.0011 15 27C13.1957 27.0011 11.4145 26.5949 9.78911 25.8116C8.16374 25.0282 6.73621 23.888 5.613 22.476C8.0445 20.7315 11.3625 19.5 15 19.5C18.6375 19.5 21.9555 20.7315 24.387 22.476Z" fill="#D6FF62"/>
</svg>
