<svg width="21" height="20" viewBox="0 0 21 20" fill="none" xmlns="http://www.w3.org/2000/svg">
<path d="M10.5398 5.95696e-05C5.0798 5.95696e-05 0.629805 4.45006 0.629805 9.91006C0.629805 11.6601 1.0898 13.3601 1.9498 14.8601L0.549805 20.0001L5.7998 18.6201C7.2498 19.4101 8.8798 19.8301 10.5398 19.8301C15.9998 19.8301 20.4498 15.3801 20.4498 9.92006C20.4498 7.27006 19.4198 4.78006 17.5498 2.91006C16.633 1.98399 15.541 1.24973 14.3374 0.750111C13.1339 0.250494 11.8429 -0.00448012 10.5398 5.95696e-05ZM10.5498 1.67006C12.7498 1.67006 14.8098 2.53006 16.3698 4.09006C17.1354 4.85541 17.7424 5.76438 18.156 6.76482C18.5695 7.76526 18.7815 8.83751 18.7798 9.92006C18.7798 14.4601 15.0798 18.1501 10.5398 18.1501C9.0598 18.1501 7.60981 17.7601 6.3498 17.0001L6.0498 16.8301L2.9298 17.6501L3.7598 14.6101L3.5598 14.2901C2.73375 12.9787 2.29682 11.4599 2.2998 9.91006C2.3098 5.37006 5.9998 1.67006 10.5498 1.67006ZM7.0298 5.33006C6.8698 5.33006 6.5998 5.39006 6.3698 5.64006C6.1498 5.89006 5.4998 6.50006 5.4998 7.71006C5.4998 8.93006 6.3898 10.1001 6.4998 10.2701C6.6398 10.4401 8.2598 12.9401 10.7498 14.0001C11.3398 14.2701 11.7998 14.4201 12.1598 14.5301C12.7498 14.7201 13.2898 14.6901 13.7198 14.6301C14.1998 14.5601 15.1798 14.0301 15.3898 13.4501C15.5998 12.8701 15.5998 12.3801 15.5398 12.2701C15.4698 12.1701 15.3098 12.1101 15.0598 12.0001C14.8098 11.8601 13.5898 11.2601 13.3698 11.1801C13.1398 11.1001 12.9998 11.0601 12.8098 11.3001C12.6498 11.5501 12.1698 12.1101 12.0298 12.2701C11.8798 12.4401 11.7398 12.4601 11.4998 12.3401C11.2398 12.2101 10.4398 11.9501 9.4998 11.1101C8.7598 10.4501 8.2698 9.64006 8.1198 9.39006C7.9998 9.15006 8.1098 9.00006 8.2298 8.89006C8.3398 8.78006 8.4998 8.60006 8.5998 8.45006C8.7298 8.31006 8.7698 8.20006 8.8498 8.04006C8.9298 7.87006 8.8898 7.73006 8.8298 7.61006C8.7698 7.50006 8.2698 6.26006 8.0598 5.77006C7.85981 5.29006 7.6598 5.35006 7.4998 5.34006C7.3598 5.34006 7.1998 5.33006 7.0298 5.33006Z" fill="#0D1E2E"/>
</svg>
