<svg width="53" height="58" viewBox="0 0 53 58" fill="none" xmlns="http://www.w3.org/2000/svg">
<path d="M0 36.918C6.02166 40.4536 15.5029 45.7594 21.5246 49.295L21.4878 44.1472C13.4506 39.828 8.03724 36.1793 0 31.8601V12.9394L26.5769 28.1298L41.0887 19.909V43.8461C40.8547 44.054 46.0458 40.9311 47.9778 39.9511V9.19082L26.7473 21.1502L0 5.8599V0L26.5719 15.2903L43.228 5.85823L53 0.183018V42.8345C52.9081 42.8977 36.0013 52.6176 36.0013 52.6176L36.0113 28.5558C35.0436 29.0033 26.8125 33.9099 26.5652 33.9914L5.08908 21.7192V28.9135L26.5785 41.2788V58C25.5306 57.6806 0.00167037 42.7762 0.00167037 42.7762V36.9164L0 36.918Z" fill="#D7DB29"/>
</svg>
